name Walk3.mot
datacolumns 19
datarows 17
range 1.18000000 1.26000000
endheader

                time	   L_ground_force_vx	   L_ground_force_vy	   L_ground_force_vz	   L_ground_force_px	   L_ground_force_py	   L_ground_force_pz	   R_ground_force_vx	   R_ground_force_vy	   R_ground_force_vz	   R_ground_force_px	   R_ground_force_py	   R_ground_force_pz	   L_ground_torque_x	   L_ground_torque_y	   L_ground_torque_z	   R_ground_torque_x	   R_ground_torque_y	   R_ground_torque_z	
          1.18000000	        -15.08119540	        223.09908383	        -37.68500034	         -0.07197824	          0.00000000	         -0.00059492	         -0.00000000	          0.00000001	          0.00000000	          0.00000000	          0.00000000	          0.00000000	          0.00000000	          0.10004685	          0.00000000	          0.00000000	          0.00000000	          0.00000000	
          1.18500000	        -24.22557002	        297.11110784	        -47.71395052	         -0.14962393	          0.00000000	          0.00136144	         -0.00000000	          0.00000001	          0.00000000	          0.00000000	          0.00000000	          0.00000000	          0.00000000	          0.14688108	          0.00000000	          0.00000000	          0.00000000	          0.00000000	
          1.19000000	        -35.35315066	        371.21233250	        -57.41310489	         -0.21797617	          0.00000000	          0.00294058	         -0.00000000	          0.00000001	          0.00000000	          0.00000000	          0.00000000	          0.00000000	          0.00000000	          0.21028942	          0.00000000	          0.00000000	          0.00000000	          0.00000000	
          1.19500000	        -48.24853474	        440.06538462	        -65.59609853	         -0.27481846	          0.00000000	          0.00410557	         -0.00000000	          0.00000001	          0.00000000	          0.00000000	          0.00000000	          0.00000000	          0.00000000	          0.29067166	          0.00000000	          0.00000000	          0.00000000	          0.00000000	
          1.20000000	        -62.37634385	        500.28986206	        -71.12645308	         -0.31963852	          0.00000000	          0.00483336	         -0.00000000	          0.00000001	         -0.00000000	          0.00000000	          0.00000000	          0.00000000	          0.00000000	          0.38702359	          0.00000000	          0.00000000	          0.00000000	          0.00000000	
          1.20500000	        -76.91453764	        550.68105493	        -73.29907957	         -0.35306378	          0.00000000	          0.00512134	         -0.00000000	          0.00000000	         -0.00000000	         -0.00000000	          0.00000000	         -0.00000000	          0.00000000	          0.49400710	          0.00000000	          0.00000000	          0.00000000	          0.00000000	
          1.21000000	        -90.93939148	        591.36874085	        -71.97280015	         -0.37639936	          0.00000000	          0.00499226	         -0.00000000	         -0.00000000	         -0.00000000	         -0.00000000	          0.00000000	         -0.00000000	          0.00000000	          0.60151427	          0.00000000	          0.00000000	          0.00000000	          0.00000000	
          1.21500000	       -103.66122588	        623.47768964	        -67.49217968	         -0.39127673	          0.00000000	          0.00448761	         -0.00000000	         -0.00000001	         -0.00000000	         -0.00000000	          0.00000000	         -0.00000000	          0.00000000	          0.69774115	          0.00000000	          0.00000000	          0.00000000	          0.00000000	
          1.22000000	       -114.62694498	        648.94488216	        -60.50286532	         -0.39940288	          0.00000000	          0.00365844	         -0.00000000	         -0.00000002	         -0.00000000	         -0.00000000	          0.00000000	         -0.00000000	          0.00000000	          0.77223363	          0.00000000	          0.00000000	          0.00000000	          0.00000000	
          1.22500000	       -123.81235135	        670.22346262	        -51.76000604	         -0.40239460	          0.00000000	          0.00255878	          0.00000000	         -0.00000003	         -0.00000000	         -0.00000000	          0.00000000	         -0.00000000	          0.00000000	          0.81743517	          0.00000000	          0.00000000	         -0.00000000	          0.00000000	
          1.23000000	       -131.53162267	        689.89304030	        -42.01160433	         -0.40168303	          0.00000000	          0.00124384	          0.00000000	         -0.00000005	         -0.00000000	         -0.00000000	          0.00000000	         -0.00000000	          0.00000000	          0.82901828	          0.00000000	          0.00000000	         -0.00000000	          0.00000000	
          1.23500000	       -138.19963623	        710.25866864	        -31.95791976	         -0.39847376	          0.00000000	         -0.00022883	          0.00000000	         -0.00000007	         -0.00000000	         -0.00000000	          0.00000000	         -0.00000000	          0.00000000	          0.80520583	          0.00000000	          0.00000000	         -0.00000000	          0.00000000	
          1.24000000	       -144.10728154	        733.06481256	        -22.22888876	         -0.39374157	          0.00000000	         -0.00179862	          0.00000000	         -0.00000009	         -0.00000000	         -0.00000000	          0.00000000	         -0.00000000	          0.00000000	          0.74553487	          0.00000000	          0.00000000	         -0.00000000	          0.00000000	
          1.24500000	       -149.33879778	        759.35341757	        -13.35488733	         -0.38824467	          0.00000000	         -0.00340281	          0.00000001	         -0.00000012	         -0.00000000	         -0.00000000	          0.00000000	         -0.00000000	          0.00000000	          0.65179159	          0.00000000	          0.00000000	         -0.00000000	          0.00000000	
          1.25000000	       -153.81976703	        789.40502213	         -5.73902188	         -0.38254855	          0.00000000	         -0.00497740	          0.00000001	         -0.00000014	         -0.00000000	         -0.00000000	          0.00000000	         -0.00000000	          0.00000000	          0.52924136	          0.00000000	          0.00000000	         -0.00000000	          0.00000000	
          1.25500000	       -157.41187587	        822.76224929	          0.36394045	         -0.37705298	          0.00000000	         -0.00646246	          0.00000001	         -0.00000016	         -0.00000000	         -0.00000000	          0.00000000	         -0.00000000	          0.00000000	          0.38649903	          0.00000000	          0.00000000	         -0.00000000	          0.00000000	
          1.26000000	       -159.98895568	        858.38709461	          4.86193448	         -0.37201657	          0.00000000	         -0.00781048	          0.00000001	         -0.00000016	         -0.00000000	         -0.00000000	          0.00000000	         -0.00000000	          0.00000000	          0.23373008	          0.00000000	          0.00000000	         -0.00000000	          0.00000000	
